inDegrees=yes
name=ik_S44_A12_T01
DataType=double
version=3
OpenSimVersion=4.3-2021-08-27-4bc7ad9
endheader
time	pelvis_tilt	pelvis_list	pelvis_rotation	pelvis_tx	pelvis_ty	pelvis_tz	hip_flexion_r	hip_adduction_r	hip_rotation_r	knee_angle_r	knee_angle_r_beta	ankle_angle_r	subtalar_angle_r	mtp_angle_r	hip_flexion_l	hip_adduction_l	hip_rotation_l	knee_angle_l	knee_angle_l_beta	ankle_angle_l	subtalar_angle_l	mtp_angle_l	lumbar_extension	lumbar_bending	lumbar_rotation	arm_flex_r	arm_add_r	arm_rot_r	elbow_flex_r	pro_sup_r	wrist_flex_r	wrist_dev_r	arm_flex_l	arm_add_l	arm_rot_l	elbow_flex_l	pro_sup_l	wrist_flex_l	wrist_dev_l
16.49999999999974	0.2995342454758212	0.1814594840275043	50.33778933552701	0	0.9399999999999999	0	36.72945311804317	-9.839425200566668	-9.505370857851469	42.26375601416213	0.7376416967066843	0	0	0	36.72945311804317	-9.839425200566668	-9.505370857851469	42.26375601416213	0.7376416967066843	0	0	0	0.6325912548244355	-0.569001194465266	-3.571980249119199	1.74187858162982	-6.0674039436728	-2.852743082715473	8.136376555570402	109.8742885507977	0	0	22.19997133066343	-21.96353230547589	-14.93527063269488	8.280730010601566	115.8482831278071	0	0
16.51999999999974	0.4779380346824668	0.1157582984231528	50.51578687143193	0	0.9399999999999999	0	36.73228895064499	-9.839614529442112	-9.505745438212097	42.26676877567723	0.7376942793147002	0	0	0	36.73228895064499	-9.839614529442112	-9.505745438212097	42.26676877567723	0.7376942793147002	0	0	0	0.6962458547469841	-0.7482900137750019	-3.470731549514626	1.557127939373528	-5.716146003414022	-2.879367499783887	8.039686747855507	109.7860071053428	0	0	21.11381880733474	-21.15541221654344	-14.71518676790918	7.163485082181419	116.5676872288285	0	0
16.53999999999974	0.4695854489004135	0.1121483387482612	50.44795293828237	0	0.9399999999999999	0	36.73543583203772	-9.839824653618866	-9.506161204205165	42.27010913799842	0.7377525796354145	0	0	0	36.73543583203772	-9.839824653618866	-9.506161204205165	42.27010913799842	0.7377525796354145	0	0	0	0.6880611180421289	-0.7431590299968639	-3.40728832936639	1.600678024404321	-5.748178061267171	-2.668387074596464	8.007192905748271	109.7868042688577	0	0	20.05092049889695	-20.24064975744813	-14.59637023282336	6.090644447724762	117.3677567642978	0	0
16.55999999999974	0.5975895203317657	0.0483634327581604	50.48293299922234	0	0.9399999999999999	0	36.73819963186274	-9.840008874654698	-9.506525988479698	42.27304558765994	0.7378038303503273	0	0	0	36.73819963186274	-9.840008874654698	-9.506525988479698	42.27304558765994	0.7378038303503273	0	0	0	0.7206924854500084	-0.8805164202736118	-3.215385711337972	1.498689329603812	-5.50827072232291	-2.751160631459945	7.961808527018796	109.8428112032314	0	0	18.8931365646671	-19.61671425591014	-13.89343574421057	5.372251403189825	118.2331559231285	0	0
16.57999999999974	0.5926032164108356	-0.006863673702850976	50.37434341951197	0	0.9399999999999999	0	36.74051924710548	-9.840163329069261	-9.50683197905	42.27551087981382	0.7378468578154358	0	0	0	36.74051924710548	-9.840163329069261	-9.50683197905	42.27551087981382	0.7378468578154358	0	0	0	0.6747540296453198	-0.9092640756219971	-3.086573732967728	1.552738304510838	-5.467574453667037	-2.652130717482037	7.971017158580032	109.8704481723906	0	0	17.77521090642762	-18.93024248298128	-13.36133038785416	4.762872298241982	119.1826593125706	0	0
16.59999999999973	0.6445883200514206	-0.04975720189753668	50.28674862512529	0	0.9399999999999999	0	36.74279237561115	-9.840314552658246	-9.507131694417524	42.27792745805692	0.73788903506241	0	0	0	36.74279237561115	-9.840314552658246	-9.507131694417524	42.27792745805692	0.73788903506241	0	0	0	0.6746493277359219	-0.9737605836261376	-2.959880335067545	1.493685603755559	-5.372835334086088	-2.651032761033092	8.005293320832704	109.912255767037	0	0	16.62546159865433	-18.36692750529584	-12.76475578167131	4.939074766200395	119.2040227766938	0	0
16.61999999999973	0.6943234146576517	-0.08030706397141717	50.15790370002109	0	0.9399999999999999	0	36.74493869608386	-9.840457215294247	-9.507414558862182	42.28020983483943	0.7379288700520359	0	0	0	36.74493869608386	-9.840457215294247	-9.507414558862182	42.28020983483943	0.7379288700520359	0	0	0	0.6828208819159507	-1.028688067246346	-2.831742430948641	1.473653126320951	-5.259284189233491	-2.646048939058607	7.977653714161283	109.951510092642	0	0	15.42904543214856	-17.80690387510995	-12.13768346143289	4.50910566733319	119.5203170581495	0	0
16.63999999999973	0.7277155899730529	-0.1029520166538594	50.03547285022812	0	0.9399999999999999	0	36.74911360517311	-9.840735844285827	-9.507966325828571	42.28462948839631	0.7380060075584011	0	0	0	36.74911360517311	-9.840735844285827	-9.507966325828571	42.28462948839631	0.7380060075584011	0	0	0	0.6866843030830616	-1.064316226571235	-2.663893766952563	1.397775218906185	-5.187979306932251	-2.714931898306425	8.01280496145799	109.9560536578152	0	0	14.2914588737113	-17.15114090356305	-11.43161148315793	3.417404753419249	120.5376802767766	0	0
16.65999999999973	0.7282371285180399	-0.1409573322419897	49.92193144733421	0	0.9399999999999999	0	36.75239173281334	-9.840953838698093	-9.508398632129659	42.28810815761708	0.7380667217898913	0	0	0	36.75239173281334	-9.840953838698093	-9.508398632129659	42.28810815761708	0.7380667217898913	0	0	0	0.6580080635233229	-1.087146117134683	-2.52535171253224	1.32258597045894	-5.184682948156722	-2.642969145683935	8.086843100786432	109.8132227922765	0	0	13.05004215720407	-16.60474506692345	-10.60376757521093	4.615386061779162	119.3819546072074	0	0
16.67999999999973	0.7397820310761031	-0.1616785781967554	49.7279303282272	0	0.9399999999999999	0	36.75451570353935	-9.841094717138576	-9.508678294150092	42.29036600944548	0.738106128738319	0	0	0	36.75451570353935	-9.841094717138576	-9.508678294150092	42.29036600944548	0.738106128738319	0	0	0	0.6502132950704332	-1.106620645822358	-2.340636089689683	1.338216534123954	-5.143871763710737	-2.630789308242763	8.021487834774947	109.8052947760235	0	0	11.70001640866122	-15.73625376428862	-9.617999440379851	4.058515555357626	120.0165225698348	0	0
16.69999999999973	0.7545620274407485	-0.1938486782340959	49.32195434415902	0	0.9399999999999999	0	36.82662523887299	-9.844366262425426	-9.516189524858719	42.38979380647642	0.7398414711645135	0	0	0	36.82662523887299	-9.844366262425426	-9.516189524858719	42.38979380647642	0.7398414711645135	0	0	0	0.6334107816252141	-1.136194327539653	-2.001370888978493	1.326249939083003	-5.091083585226835	-2.498684725170394	8.054925582203408	109.7897684066938	0	0	9.386608578868209	-14.51810949862713	-7.185397821596816	5.0661419580293	118.3874760579205	0	0
16.71999999999973	0.7951506673847955	-0.1831105367326834	49.08045939277386	0	0.9399999999999999	0	36.83088513050067	-9.844646518146655	-9.516748261658295	42.39430599281565	0.7399202236725965	0	0	0	36.83088513050067	-9.844646518146655	-9.516748261658295	42.39430599281565	0.7399202236725965	0	0	0	0.6683841876884987	-1.156597817904933	-1.775150111044688	1.215286525700407	-5.061956652325757	-2.368757292196228	8.044170843871642	109.7590686009075	0	0	8.195642938216119	-13.55203633846921	-6.033736012067847	4.18458890839739	120.1931001280026	0	0
16.73999999999973	0.7422808120624643	-0.2328510243523634	48.92477767712774	0	0.9399999999999999	0	36.83287758756661	-9.844776832682317	-9.517008630714137	42.39642633078996	0.7399572305515034	0	0	0	36.83287758756661	-9.844776832682317	-9.517008630714137	42.39642633078996	0.7399572305515034	0	0	0	0.5966277750342592	-1.147914800825655	-1.622209801543019	1.340582586176629	-5.084080822479161	-2.225150134501348	8.021428573466121	109.6924701857573	0	5.38806921148701e-36	7.437366450879647	-12.72422850588598	-5.024453777897414	3.997389780175784	120.4554259016756	0	5.38806921148701e-36
16.75999999999973	0.7244524857488908	-0.2539129001585271	48.77484615481887	0	0.9399999999999999	0	36.83495166209192	-9.844912444463862	-9.517279638060563	42.39863309638217	0.7399957458769072	0	0	0	36.83495166209192	-9.844912444463862	-9.517279638060563	42.39863309638217	0.7399957458769072	0	0	0	0.5693697805536977	-1.147185600247783	-1.505968148788903	1.373493853578303	-5.088042752761887	-2.084979344438175	8.022968414641605	109.702081359296	0	0	6.722884199943107	-12.03250219616386	-4.181088576508222	3.665709568994862	120.540639256872	0	0
16.77999999999973	0.7558931005058744	-0.2810724562590339	48.67150263293217	0	0.9399999999999999	0	36.83740168289273	-9.845072658266597	-9.517599830405922	42.4012381760831	0.7400412130949653	0	0	0	36.83740168289273	-9.845072658266597	-9.517599830405922	42.4012381760831	0.7400412130949653	0	0	0	0.5696775766077569	-1.187464096411745	-1.412915068751256	1.366442362429269	-5.012399875325625	-2.03471886181852	8.013450921166696	109.8093547892048	0	0	6.028905216457421	-11.46041283214273	-3.623333656209013	3.246666890157778	120.7106534351182	0	0
16.79999999999973	0.7739972127100222	-0.3146194461892323	48.62464214641662	0	0.9399999999999999	0	36.83943133439183	-9.845204879970765	-9.517864451407316	42.40340276695847	0.7400789923326991	0	0	0	36.83943133439183	-9.845204879970765	-9.517864451407316	42.40340276695847	0.7400789923326991	0	0	0	0.5564424985595834	-1.222725908811775	-1.359483623872831	1.371675363534435	-4.945720199432311	-1.985866842003027	8.000766956571621	109.8863688234911	0	0	5.369186773126174	-10.92400860044399	-3.335355384522541	3.258502884263017	120.6914811977463	0	0
16.81999999999973	0.7604722323926562	-0.348247397292537	48.57600670279472	0	0.9399999999999999	0	36.84236829175278	-9.845396706253197	-9.518248065556699	42.40652565739153	0.740133497052935	0	0	0	36.84236829175278	-9.845396706253197	-9.518248065556699	42.40652565739153	0.740133497052935	0	0	0	0.5220500047146164	-1.234592104460985	-1.348043692522663	1.412946725340415	-4.920416029955543	-1.846585446487226	8.006203215547963	109.8604731029485	0	0	4.724448887216244	-10.09845278885044	-3.170653304578276	2.415236219733857	120.5627695505164	0	0
16.83999999999973	0.7466633676889957	-0.3594693057213836	48.5539251125202	0	0.9399999999999999	0	36.84524143645419	-9.845583895096084	-9.518622779617194	42.40958570512662	0.7401869049611806	0	0	0	36.84524143645419	-9.845583895096084	-9.518622779617194	42.40958570512662	0.7401869049611806	0	0	0	0.5043713597658169	-1.231399526834105	-1.32680575245842	1.427080575983936	-4.92533692506602	-1.703977083897603	8.006437801706907	109.7404631769773	0	0	4.201809257535221	-9.403721519011345	-2.832561166344624	1.936733324126544	119.6945395933374	0	0
16.85999999999973	0.7405987588470606	-0.3791775423442153	48.63474601871345	0	0.9399999999999999	0	36.8485361003486	-9.845798435428808	-9.519052401902064	42.41309319610864	0.7402481222273007	0	0	0	36.8485361003486	-9.845798435428808	-9.519052401902064	42.41309319610864	0.7402481222273007	0	0	0	0.4847609104642208	-1.239634514983018	-1.408328513366812	1.467990907295984	-4.91017316070501	-1.606818130780794	7.994240936718592	109.6977765593165	0	0	4.194437467349585	-9.177715946507957	-2.836708367383348	1.110353721485344	118.5212979005145	0	0
16.87999999999973	0.7487455698677676	-0.3858432904878333	48.58360630880922	0	0.9399999999999999	0	36.85168543404027	-9.84600298942763	-9.519462438981911	42.41645173205889	0.7403067397376792	0	0	0	36.85168543404027	-9.84600298942763	-9.519462438981911	42.41645173205889	0.7403067397376792	0	0	0	0.4847487289890701	-1.250054453501921	-1.397866841684959	1.458950302661862	-4.885037332271681	-1.545274122641391	7.968046747504933	109.7427786926096	0	0	3.629678848371927	-8.590472949278652	-2.546110852859385	1.122061007887876	117.155439373295	0	0
